<?xml version="1.0" standalone="no"?>
<!DOCTYPE svg PUBLIC "-//W3C//DTD SVG 20010904//EN"
 "http://www.w3.org/TR/2001/REC-SVG-20010904/DTD/svg10.dtd">
<svg version="1.0" xmlns="http://www.w3.org/2000/svg"
 width="1280.000000pt" height="1276.000000pt" viewBox="0 0 1280.000000 1276.000000"
 preserveAspectRatio="xMidYMid meet">
<metadata>
Created by potrace 1.15, written by Peter Selinger 2001-2017
</metadata>
<g transform="translate(0.000000,1276.000000) scale(0.100000,-0.100000)"
fill="#000000" stroke="none">
<path d="M10085 12750 c-4 -7 -107 -10 -287 -9 l-281 1 -186 -186 -186 -186
-28 54 c-16 30 -37 62 -48 72 -19 17 -18 20 88 126 87 87 105 110 93 118 -12
7 -38 -14 -117 -92 l-102 -102 -43 40 c-24 22 -54 47 -67 56 l-23 17 36 32
c34 29 36 33 21 48 -15 15 -19 13 -51 -21 l-34 -38 -67 37 c-65 36 -67 36 -96
20 -28 -17 -30 -17 -43 0 -12 16 -46 -15 -364 -332 l-350 -350 0 120 0 120
217 217 c173 173 215 220 205 230 -10 10 -54 -29 -217 -192 l-205 -205 0 120
0 120 72 72 c57 57 70 75 60 85 -10 10 -25 0 -72 -47 l-60 -59 0 52 0 52 -77
0 c-124 1 -1256 1 -1385 0 l-118 0 0 -115 0 -115 -136 -133 c-132 -129 -137
-132 -196 -145 -78 -16 -158 -52 -225 -103 -51 -38 -53 -39 -53 -16 0 18 73
97 295 318 264 262 294 295 280 308 -14 14 -45 -14 -295 -264 -153 -153 -281
-277 -283 -275 -1 3 -8 27 -15 54 -7 27 -22 62 -34 78 l-21 30 179 179 c99 99
180 183 182 188 2 5 -2 12 -9 16 -7 5 -57 -38 -129 -110 l-119 -118 -3 39 c-3
43 -4 44 -91 30 -48 -7 -49 -7 -42 16 4 13 30 47 58 75 40 41 48 56 39 65 -9
9 -19 5 -42 -17 -23 -22 -33 -26 -42 -17 -14 14 -126 16 -146 3 -11 -7 -11
-16 2 -55 26 -76 25 -76 -46 -60 -34 8 -68 12 -75 9 -10 -3 -13 -24 -11 -82 3
-72 5 -78 23 -75 12 2 -24 -41 -96 -114 l-117 -117 -48 17 c-26 9 -73 16 -103
16 l-56 0 240 240 c191 191 237 242 227 252 -10 10 -80 -55 -347 -322 l-335
-335 0 120 0 120 202 202 c161 161 200 205 190 215 -10 10 -51 -26 -202 -177
l-190 -190 0 120 0 119 57 58 c45 45 55 60 45 70 -9 9 -22 3 -57 -32 l-45 -44
0 37 0 37 -92 0 c-125 1 -1255 1 -1390 0 l-108 0 0 -103 0 -102 -155 -155
-155 -155 -17 25 c-10 14 -34 43 -55 65 l-37 40 187 187 c148 149 184 190 174
200 -10 10 -51 -26 -202 -177 l-189 -189 -38 26 c-21 15 -55 35 -76 44 l-38
18 133 133 c105 105 130 135 120 145 -10 10 -41 -16 -151 -126 l-138 -138 -54
16 c-30 8 -74 18 -98 21 l-43 7 103 104 c82 82 101 106 91 116 -10 10 -36 -11
-125 -100 -62 -62 -120 -112 -129 -112 -25 0 -49 46 -55 106 -5 44 -2 58 12
74 14 16 16 23 7 32 -10 10 -35 -11 -115 -89 l-102 -102 -67 53 -67 53 37 36
c29 29 34 39 24 49 -10 10 -48 -23 -185 -160 -95 -95 -174 -172 -177 -172 -3
0 -4 53 -2 117 l3 118 42 43 c34 35 39 44 27 52 -11 7 -22 2 -40 -15 -32 -30
-40 -31 -33 -5 6 23 111 21 -906 20 -371 0 -676 -1 -678 -3 -2 -2 -3 -307 -3
-678 -1 -1003 -3 -899 20 -899 27 0 25 -6 -7 -34 -24 -21 -26 -26 -14 -40 13
-16 18 -13 60 28 l47 46 112 0 c62 0 112 -3 112 -7 0 -4 -76 -84 -170 -178
-132 -133 -167 -173 -160 -185 8 -12 49 24 202 178 l193 192 113 0 c61 0 112
-3 112 -7 0 -5 -143 -151 -317 -325 -253 -253 -315 -320 -305 -330 10 -10 81
56 350 325 l337 337 113 0 c61 0 112 -4 112 -8 0 -5 -9 -17 -20 -27 -17 -15
-24 -16 -50 -5 -35 14 -91 8 -125 -14 -33 -21 -58 -82 -64 -156 l-6 -64 -38
-8 c-124 -26 -277 -181 -277 -282 0 -26 -25 -56 -172 -203 -137 -137 -170
-175 -160 -185 10 -10 51 26 200 175 l187 187 120 0 120 0 -320 -320 c-255
-255 -317 -322 -307 -332 10 -10 77 52 332 307 176 176 320 316 320 312 0 -4
-20 -59 -45 -121 -24 -62 -50 -138 -56 -167 -11 -53 -15 -58 -287 -331 -220
-221 -274 -280 -264 -290 10 -10 43 18 163 137 122 122 145 142 125 105 -45
-78 -25 -150 41 -150 26 0 22 -6 -52 -80 l-80 -80 -97 0 -98 0 0 -100 c0 -55
-1 -365 -1 -690 0 -324 1 -637 1 -695 l0 -105 30 0 30 0 -37 -34 c-33 -30 -36
-36 -23 -50 12 -16 18 -12 64 33 l52 51 119 0 120 0 -182 -182 c-143 -143
-180 -186 -173 -198 8 -12 50 25 207 183 l198 197 120 0 120 0 -330 -330
c-263 -263 -327 -332 -317 -342 10 -10 82 57 355 330 l342 342 120 0 120 0
-475 -475 c-379 -379 -472 -477 -462 -487 10 -10 111 86 500 475 l487 487 120
0 120 0 -620 -620 c-495 -495 -617 -622 -607 -632 10 -10 140 115 645 620
l632 632 120 0 120 0 -762 -762 -763 -763 0 -807 0 -808 67 0 68 0 -67 -66
c-42 -41 -65 -71 -61 -80 3 -7 8 -14 12 -14 3 0 42 36 86 80 l80 80 120 0 120
0 -215 -215 c-171 -171 -212 -217 -202 -227 10 -10 59 34 240 215 l227 227
120 0 120 0 -360 -360 c-287 -287 -357 -362 -347 -372 10 -10 88 63 385 360
l372 372 120 0 120 0 -505 -505 c-403 -403 -502 -507 -492 -517 10 -10 117 92
530 505 l517 517 120 0 120 0 -650 -650 c-519 -519 -647 -652 -637 -662 10
-10 146 121 675 650 l662 662 120 0 120 0 -794 -794 c-728 -728 -831 -837
-765 -812 12 4 14 -15 14 -111 0 -105 -2 -119 -21 -139 -22 -23 -17 -49 7 -40
12 4 14 -15 14 -111 0 -105 -2 -119 -21 -139 -22 -23 -19 -44 7 -44 11 0 14
-21 14 -112 0 -100 -2 -114 -21 -134 -22 -23 -19 -44 7 -44 11 0 14 -21 14
-112 0 -100 -2 -114 -21 -134 -22 -23 -19 -44 7 -44 11 0 14 -21 14 -112 0
-100 -2 -114 -21 -134 -22 -23 -19 -44 7 -44 11 0 14 -16 14 -71 l0 -71 45 4
c25 2 45 1 45 -2 0 -2 -29 -34 -65 -70 -49 -49 -62 -69 -55 -80 8 -12 25 1 92
67 l83 82 118 3 c64 2 117 1 117 -2 0 -3 -95 -100 -212 -217 -169 -169 -210
-215 -200 -225 10 -10 45 20 172 147 l160 160 0 -119 0 -120 -172 -173 c-136
-136 -170 -175 -160 -185 10 -10 46 21 170 145 86 86 160 157 164 157 4 0 30
-28 58 -62 l50 -63 -227 -227 c-181 -181 -225 -230 -215 -240 10 -10 58 33
235 210 122 122 226 222 230 222 4 0 7 -51 7 -112 l0 -113 -242 -242 c-193
-193 -240 -245 -230 -255 10 -10 59 34 242 217 l230 230 0 -71 0 -71 -65 -86
c-50 -66 -65 -94 -65 -120 0 -30 -17 -51 -176 -207 -125 -123 -172 -176 -164
-184 7 -7 45 24 130 109 l119 119 3 -75 3 -74 44 -3 44 -3 -33 -34 c-49 -51
-18 -57 34 -6 l42 41 124 0 124 0 -33 -34 c-50 -51 -19 -58 33 -7 l42 41 124
0 124 0 -33 -34 c-50 -51 -19 -58 33 -7 l42 41 124 0 124 0 -27 -28 c-26 -27
-35 -52 -19 -52 4 0 25 18 47 40 l38 39 101 3 101 3 1 99 2 99 96 96 96 96 0
-125 0 -125 -102 -102 c-68 -69 -99 -106 -92 -113 6 -6 38 18 94 75 47 47 88
85 92 85 5 0 8 -38 8 -85 l0 -85 782 0 782 0 41 40 42 41 51 -35 c28 -19 75
-42 104 -52 50 -16 52 -16 63 2 5 10 30 40 55 65 37 38 58 51 115 67 39 11 93
23 120 27 28 3 66 8 85 11 l35 5 -74 -74 c-46 -47 -71 -79 -66 -87 5 -8 36 17
95 75 l88 88 64 -7 c34 -4 85 -9 111 -13 l49 -6 -63 -63 c-42 -43 -60 -67 -53
-74 6 -6 31 12 74 55 37 38 73 65 85 65 22 0 114 -33 145 -52 19 -12 19 -13
-2 -35 -15 -16 -18 -27 -12 -33 7 -7 18 -2 34 15 l24 25 33 -31 32 -32 106 51
c59 29 109 52 113 52 3 0 -9 -16 -28 -35 -23 -24 -31 -38 -24 -45 8 -8 29 8
70 49 32 34 62 61 67 61 4 0 7 -27 7 -59 l0 -60 393 -3 c215 -2 573 -2 795 0
l402 3 0 132 0 132 140 140 c76 76 141 137 143 135 12 -13 37 -124 37 -161 0
-43 -3 -46 -156 -200 -102 -102 -154 -161 -149 -169 5 -8 57 37 156 136 l149
149 0 -68 c0 -67 0 -68 36 -89 l35 -21 -46 -47 c-29 -29 -44 -53 -40 -60 5 -8
25 5 60 40 l53 53 64 -25 c35 -14 75 -28 90 -32 18 -4 25 -11 22 -20 -8 -20
12 -28 26 -11 11 13 33 14 134 9 67 -4 127 -11 134 -17 8 -7 18 -5 30 5 9 9
46 18 82 22 68 6 181 35 219 55 33 18 25 -4 -15 -39 -27 -24 -34 -34 -25 -43
9 -9 61 38 211 188 l200 200 0 -125 0 -126 -65 -64 c-43 -43 -61 -68 -55 -74
7 -7 29 8 65 44 l55 54 0 -52 0 -52 795 0 795 0 0 123 0 122 88 88 88 87 62
-6 c34 -4 65 -11 68 -15 12 -20 33 -6 77 51 54 69 83 90 139 100 39 8 33 0
-228 -261 -175 -175 -265 -272 -259 -278 7 -7 110 90 299 278 280 279 292 289
389 341 57 30 98 47 95 39 -3 -8 -14 -42 -23 -76 -27 -98 -87 -154 -205 -192
-85 -27 -144 -106 -161 -215 -9 -54 -16 -67 -62 -113 -40 -41 -49 -55 -39 -65
9 -9 22 -3 56 31 34 34 45 39 49 27 5 -13 24 -16 102 -16 84 0 119 -10 83 -23
-10 -4 -10 -7 -1 -18 11 -10 18 -8 41 14 27 26 32 27 145 27 113 0 129 -4 106
-27 -8 -8 -7 -13 1 -18 7 -4 23 4 39 19 26 25 32 26 144 26 113 0 129 -4 106
-27 -8 -8 -7 -13 1 -18 7 -4 23 4 38 19 25 23 35 25 132 28 l105 3 3 105 3
105 57 57 c31 32 59 58 62 58 3 0 4 -55 2 -122 l-3 -123 -61 -61 c-40 -41 -56
-64 -48 -69 7 -4 30 11 59 39 26 25 49 46 51 46 3 0 4 -20 2 -45 l-4 -45 806
0 806 0 0 805 0 805 -40 0 c-42 0 -50 9 -25 30 11 9 13 16 5 24 -7 7 -20 0
-43 -22 l-33 -32 -117 0 c-64 0 -117 3 -117 8 0 4 72 79 160 167 106 106 156
163 150 169 -7 7 -43 -22 -107 -84 -52 -52 -93 -87 -90 -78 8 24 -11 85 -41
130 l-25 39 136 137 c75 76 137 141 137 145 0 24 -40 -8 -162 -130 l-136 -136
-29 24 c-16 13 -50 35 -76 49 l-47 25 226 226 c148 148 224 231 219 239 -5 8
-84 -65 -239 -219 -173 -173 -236 -230 -249 -225 -15 5 -15 9 -3 33 23 43 28
92 16 145 l-11 50 247 247 c161 162 244 251 239 259 -5 8 -88 -68 -251 -231
-134 -134 -245 -241 -247 -239 -2 3 -17 44 -35 91 l-31 87 23 21 c20 19 34 21
139 21 l117 0 -6 33 c-10 63 -16 82 -31 115 l-16 34 173 173 c112 112 170 177
165 185 -5 8 -65 -45 -181 -161 l-174 -173 -32 31 c-18 17 -49 42 -70 55 l-36
25 161 161 162 161 79 3 79 3 -2 73 c-2 47 2 79 10 88 9 11 9 18 1 26 -17 17
-16 250 0 266 9 9 9 15 0 24 -14 14 -17 245 -2 268 5 9 5 19 -1 26 -6 8 -8 63
-6 141 3 70 5 134 5 141 -1 17 -1 269 0 285 2 83 -11 247 -20 247 -6 0 -1 11
11 24 35 38 5 44 -33 7 l-32 -31 -124 0 -125 0 169 169 c112 113 164 171 156
176 -8 5 -74 -54 -189 -169 l-176 -176 -125 0 -125 0 315 315 c210 210 311
318 304 325 -6 6 -118 -99 -334 -315 l-325 -325 -125 0 -125 0 460 460 c306
306 456 463 449 470 -6 6 -166 -147 -479 -460 l-470 -470 -125 0 -125 0 605
605 c403 403 601 608 594 615 -6 6 -214 -195 -624 -605 l-615 -615 -125 0
-125 0 750 750 c480 480 746 753 740 759 -6 6 -285 -264 -775 -749 -737 -732
-766 -759 -802 -760 l-38 0 0 88 -1 87 698 692 698 693 108 0 107 0 0 113 c1
108 1 1200 0 1380 l0 87 -47 0 -47 0 53 54 c36 36 49 56 41 61 -7 5 -36 -16
-74 -54 l-62 -61 -124 0 -125 0 198 198 c108 108 197 201 197 205 0 25 -48
-16 -230 -198 l-205 -205 -125 0 -125 0 345 345 c230 230 341 348 334 355 -6
6 -128 -109 -364 -345 l-355 -355 -125 0 -125 0 489 489 c321 321 486 493 481
501 -5 8 -176 -156 -509 -489 l-501 -501 -125 0 -125 0 634 634 c418 418 631
638 626 646 -5 8 -224 -204 -654 -634 l-646 -646 -123 0 c-67 0 -122 1 -122 3
0 1 350 352 777 779 588 588 775 780 766 789 -9 9 -393 -369 -1578 -1552
-1280 -1278 -1572 -1565 -1596 -1567 l-29 -3 0 98 0 98 678 678 677 677 123 0
122 0 0 123 0 122 678 678 677 677 123 0 122 0 0 123 c1 115 0 1208 0 1385 l0
82 -52 0 -52 0 58 59 c39 39 54 61 46 66 -8 5 -37 -18 -79 -59 l-67 -66 -124
0 -124 0 29 30 c27 28 33 29 119 32 l91 3 3 90 3 90 81 82 c55 55 79 86 72 93
-6 6 -38 -19 -94 -75 -80 -80 -87 -85 -127 -85 l-43 0 0 82 0 83 137 137 c92
92 134 141 127 148 -6 6 -54 -35 -144 -125 -74 -74 -138 -135 -142 -135 -4 0
-29 32 -55 71 l-47 70 198 198 c130 130 196 203 191 211 -5 8 -70 -50 -196
-176 l-189 -189 0 125 0 125 197 197 c135 135 194 201 187 208 -7 7 -67 -47
-189 -170 -99 -99 -183 -180 -187 -180 -4 0 -8 15 -8 33 0 25 15 54 62 116 61
82 61 83 59 144 l-2 61 138 138 c110 111 135 140 125 150 -10 10 -37 -11 -134
-110 -67 -67 -123 -122 -125 -122 -2 0 -3 27 -3 60 l0 60 -57 0 -57 0 49 50
c39 39 47 52 37 62 -10 10 -26 -1 -75 -50 -54 -54 -68 -62 -100 -62 -36 0 -37
-1 -37 -37 0 -30 -8 -45 -42 -80 -25 -26 -51 -43 -65 -43 -22 0 -23 3 -23 85
0 60 -4 85 -12 85 -7 0 8 20 32 45 35 35 41 48 32 57 -10 10 -24 0 -67 -42
l-56 -55 -92 -5 -92 -5 4 -82 3 -83 -91 0 -91 0 0 27 c0 22 23 50 102 130 81
81 100 105 90 115 -10 10 -31 -6 -101 -76 -88 -87 -89 -88 -93 -60 l-3 29 -84
3 -84 3 42 43 c37 38 40 44 26 56 -13 11 -43 -15 -223 -194 -114 -113 -208
-206 -209 -206 -2 0 -3 51 -3 112 l0 113 81 81 c71 72 78 82 64 94 -14 12 -24
5 -81 -51 l-64 -63 0 57 0 57 -77 0 c-43 1 -272 1 -510 1 -276 -1 -434 3 -438
9 -8 13 -22 13 -30 0z m-737 -467 l-193 -193 2 122 2 122 188 188 188 188 3
-117 3 -117 -193 -193z m-7564 6 c-93 -93 -171 -169 -174 -169 -3 0 -4 53 -2
117 l3 118 141 142 142 142 29 -91 29 -91 -168 -168z m9516 -94 l-160 -160 0
120 0 120 158 158 157 157 3 -117 3 -117 -161 -161z m-9197 351 c-10 -13 -20
-22 -22 -20 -4 4 29 44 36 44 2 0 -4 -11 -14 -24z m10137 -61 c0 -8 -7 -15
-16 -15 -14 0 -14 3 -4 15 7 8 14 15 16 15 2 0 4 -7 4 -15z m-9156 -345 c-70
-69 -108 -100 -111 -91 -3 7 -21 43 -39 80 l-33 66 142 143 142 142 3 -117 3
-117 -107 -106z m2646 321 c0 -4 -15 -22 -34 -40 -36 -35 -46 -29 -46 28 0 25
2 26 40 23 22 -2 40 -7 40 -11z m-190 -18 c0 -16 -20 -67 -44 -115 -24 -47
-47 -104 -51 -126 -4 -23 -17 -50 -33 -65 l-27 -26 -73 47 -73 46 133 133 c73
73 141 133 150 133 13 0 18 -8 18 -27z m830 -108 l0 -115 -34 -37 -33 -37 -29
28 c-16 14 -50 34 -76 44 l-48 17 107 107 c59 60 109 108 110 108 2 0 3 -52 3
-115z m1990 35 c-13 -36 -19 -83 -20 -135 l0 -80 -195 -195 -195 -195 0 120 0
120 212 212 c117 117 213 211 214 210 2 -1 -6 -27 -16 -57z m928 -437 l-253
-253 -3 44 c-2 35 3 53 28 92 17 27 42 85 56 129 l25 80 197 198 197 197 3
-117 3 -117 -253 -253z m-7352 363 c-15 -25 -30 -75 -37 -117 l-12 -74 -136
-137 c-74 -76 -138 -138 -141 -138 -3 0 -4 53 -2 117 l3 118 172 173 172 172
3 -35 c2 -25 -5 -50 -22 -79z m9595 -52 l48 -60 -220 -220 -219 -219 0 120 0
120 162 162 c90 90 167 162 172 160 5 -2 30 -30 57 -63z m-8413 -361 c-39 -40
-74 -70 -77 -68 -2 3 -14 44 -27 93 l-22 87 96 98 97 97 3 -117 3 -117 -73
-73z m3252 200 l-1 -78 -20 59 c-19 55 -19 59 -3 77 9 11 19 19 21 19 1 0 3
-35 3 -77z m5000 -398 l-230 -230 0 120 0 120 228 228 227 227 3 -117 3 -117
-231 -231z m-2020 20 l-190 -190 -65 9 -65 10 0 45 0 46 253 253 252 252 3
-117 3 -117 -191 -191z m-3910 380 c0 -8 -4 -15 -10 -15 -5 0 -10 7 -10 15 0
8 5 15 10 15 6 0 10 -7 10 -15z m2928 -79 l23 -95 -218 -215 c-120 -119 -219
-216 -220 -216 -2 0 -3 51 -3 112 l0 112 193 197 c105 108 194 197 197 197 3
1 15 -41 28 -92z m-3516 -87 l16 -37 -44 -43 -44 -43 0 119 c0 109 2 121 23
143 l22 24 6 -64 c3 -34 13 -79 21 -99z m1514 4 c-11 -29 -17 -6 -9 33 7 36 8
37 11 11 2 -16 1 -36 -2 -44z m-3235 -318 c-69 -72 -64 -76 -76 68 l-7 79 69
71 68 72 3 -114 3 -114 -60 -62z m-1428 229 c-31 -69 -36 -152 -11 -181 17
-18 16 -21 -30 -66 -26 -26 -50 -47 -52 -47 -3 0 -4 53 -2 117 l3 118 57 58
c31 31 57 57 59 57 1 0 -10 -25 -24 -56z m6736 -5 c22 -36 31 -63 31 -92 0
-40 -5 -47 -102 -143 -86 -85 -117 -108 -188 -142 -47 -22 -101 -54 -120 -70
l-35 -30 24 -26 25 -26 -54 -55 c-30 -30 -58 -55 -62 -55 -4 0 -8 51 -8 112
l0 113 228 231 c125 127 227 232 228 232 1 1 15 -21 33 -49z m-2199 -324
l-130 -130 0 119 0 119 128 129 127 129 3 -118 3 -117 -131 -131z m-3830 331
c-4 -13 -14 -43 -20 -66 -18 -68 -96 -143 -183 -177 -96 -37 -150 -91 -172
-170 -15 -52 -28 -69 -118 -160 l-101 -102 -90 -3 -91 -3 -3 -90 -3 -90 -172
-172 c-94 -95 -175 -173 -179 -173 -5 0 -8 8 -8 18 0 10 -16 45 -35 77 l-36
59 188 188 c103 103 196 188 205 188 11 0 18 7 18 18 0 9 122 139 273 289 231
231 279 275 322 291 28 10 84 37 125 60 41 23 78 42 82 42 4 0 3 -11 -2 -24z
m9125 -182 c-52 -70 -65 -94 -65 -123 0 -33 -13 -49 -165 -201 l-165 -165 0
120 0 120 228 228 227 227 3 -60 c3 -59 3 -59 -63 -146z m-6597 125 l50 -66
-104 -104 -104 -104 0 120 0 119 52 53 c28 29 53 51 54 50 1 -1 24 -32 52 -68z
m4518 -258 l-85 -84 -58 26 c-32 14 -71 29 -87 33 -28 7 -25 10 140 175 l169
169 3 -117 3 -117 -85 -85z m-7601 -31 c-132 -132 -242 -240 -245 -240 -3 0
-4 53 -2 117 l3 118 65 66 65 66 52 -14 c28 -7 64 -13 79 -13 15 0 30 -4 33
-10 12 -19 24 -10 71 50 39 50 95 99 114 100 3 0 -103 -108 -235 -240z m3204
155 c24 -28 31 -45 31 -78 0 -41 -4 -46 -155 -197 l-155 -155 0 120 0 120 112
112 c62 62 118 113 124 113 7 0 26 -16 43 -35z m3421 -50 c0 -49 -2 -55 -22
-59 -13 -2 -45 -9 -72 -14 l-48 -10 68 69 c38 38 70 69 71 69 2 0 3 -25 3 -55z
m-5342 -282 c-29 -29 -56 -53 -60 -53 -4 0 -8 50 -8 112 l0 112 58 59 57 58 3
-117 3 -118 -53 -53z m3140 -60 l-93 -93 -120 0 -120 0 210 210 210 210 3
-117 3 -117 -93 -93z m3186 -14 l-77 -78 -119 -3 c-65 -2 -118 -1 -118 2 0 3
17 23 38 43 24 24 44 35 54 32 18 -7 237 95 238 111 0 5 -18 23 -39 40 l-40
29 67 68 67 68 3 -118 3 -117 -77 -77z m-4375 159 c-3 -60 -1 -64 28 -84 l32
-21 -67 -67 -68 -66 -119 0 -120 0 150 150 c82 83 153 150 158 150 5 0 7 -28
6 -62z m6381 37 c0 -8 -7 -15 -16 -15 -14 0 -14 3 -4 15 7 8 14 15 16 15 2 0
4 -7 4 -15z m-2720 -33 c0 -4 -53 -60 -118 -125 l-117 -117 -120 0 -120 0 110
110 c61 61 120 113 133 117 22 5 147 19 205 22 15 0 27 -2 27 -7z m218 -24
l44 -11 -103 -103 -104 -104 -120 0 -120 0 120 121 120 120 60 -6 c33 -3 80
-11 103 -17z m-643 -118 l-100 -100 -120 0 -120 0 61 61 61 61 49 -25 c27 -13
63 -28 81 -31 30 -7 33 -5 53 34 19 38 97 100 124 100 6 0 -34 -45 -89 -100z
m3108 -38 c26 -2 47 -6 47 -9 0 -3 -12 -15 -27 -27 -24 -18 -44 -22 -150 -26
-68 -3 -123 -3 -123 0 0 2 44 49 98 103 l97 98 5 -68 5 -68 48 -3z m-2318 104
c28 -13 59 -31 70 -39 19 -15 19 -17 -35 -71 l-54 -56 -120 0 -121 0 95 95
c52 52 99 95 105 95 5 0 33 -11 60 -24z m-7012 -96 l71 0 -33 -34 -34 -35
-118 -3 c-66 -2 -119 -1 -119 2 0 2 33 37 73 78 l72 73 8 -41 8 -40 72 0z
m1122 -70 c42 0 43 -5 8 -42 -35 -37 -43 -35 -43 7 l0 35 -77 0 -77 0 74 75
75 76 3 -76 3 -75 34 0z m3198 0 l51 0 -49 -50 -50 -51 -3 51 -3 50 -67 0 -66
0 64 65 65 66 3 -66 3 -65 52 0z m-1147 79 l82 -32 -23 -23 c-23 -23 -31 -24
-144 -24 l-119 0 56 55 c32 30 59 55 61 55 2 0 41 -14 87 -31z m669 -29 l-49
-50 -120 0 c-105 0 -118 2 -106 14 8 8 59 22 112 30 53 9 118 24 145 35 71 28
72 26 18 -29z m3661 -52 l65 -3 -66 -65 -65 -64 0 67 0 67 -52 0 -52 0 49 50
50 51 3 -50 3 -50 65 -3z m-7175 38 l-34 -35 -118 -3 c-66 -2 -119 -1 -119 2
0 2 14 19 32 37 l32 33 120 0 120 0 -33 -34z m319 29 c0 -3 -15 -19 -32 -35
-33 -29 -34 -29 -152 -30 l-120 0 34 35 34 35 118 0 c65 0 118 -2 118 -5z
m290 -3 c0 -5 -13 -20 -28 -35 -27 -26 -31 -27 -150 -27 l-122 0 38 35 37 34
113 1 c61 0 112 -4 112 -8z m8715 -32 l-29 -30 -128 0 -128 0 32 30 c33 29 34
29 157 30 l125 0 -29 -30z m290 0 l-29 -30 -125 0 -125 0 29 30 29 30 125 0
125 0 -29 -30z m290 0 l-29 -30 -125 0 -125 0 29 30 29 30 125 0 125 0 -29
-30z m-6766 0 c55 0 62 -2 51 -15 -10 -12 -38 -15 -133 -15 l-120 0 19 21 c16
18 26 20 69 15 28 -3 79 -6 114 -6z m-4349 -37 c0 -10 -253 -263 -262 -263 -5
0 -8 22 -8 50 0 27 -7 70 -16 96 l-16 46 38 39 38 39 113 0 c62 0 113 -3 113
-7z m130 -168 l-176 -176 -68 36 c-37 19 -75 35 -84 35 -10 0 42 59 123 140
l140 140 120 0 120 0 -175 -175z m2200 167 c0 -4 -81 -88 -180 -187 l-180
-180 0 120 0 119 67 68 67 68 113 0 c62 0 113 -3 113 -8z m-25 -322 l-330
-330 -3 117 -3 117 213 213 213 213 120 0 120 0 -330 -330z m600 310 c-13 -15
-22 -17 -36 -10 -10 6 -38 10 -63 10 -34 0 -52 -6 -76 -27 -39 -33 -51 -61
-59 -142 l-6 -63 -60 -22 c-139 -50 -249 -168 -257 -275 -2 -25 -36 -64 -190
-218 l-188 -188 0 120 0 120 357 357 358 358 119 0 c118 0 119 0 101 -20z
m185 -105 c-69 -69 -128 -125 -131 -125 -3 0 -9 28 -11 63 -3 35 -12 76 -21
93 -15 28 -15 30 16 62 l31 32 120 0 121 0 -125 -125z m246 -44 l-169 -169
-44 29 c-25 15 -58 31 -74 34 -16 4 -31 10 -33 14 -3 4 52 65 123 134 l128
127 119 0 119 0 -169 -169z m2014 -26 l-195 -195 -3 117 -3 117 78 78 78 78
120 0 120 0 -195 -195z m145 -145 l-340 -340 -3 117 -3 117 223 223 223 223
120 0 120 0 -340 -340z m570 280 c-53 -54 -61 -59 -70 -43 -20 36 -74 83 -94
83 -12 0 -21 5 -21 10 0 6 47 10 122 10 l122 0 -59 -60z m345 57 c0 -14 -275
-272 -288 -270 -9 0 -37 5 -62 10 -45 8 -45 9 -48 54 -3 44 -2 45 81 127 l85
82 116 0 c64 0 116 -2 116 -3z m290 -4 c0 -9 -392 -403 -400 -403 -3 0 -32 25
-65 56 l-60 57 150 148 150 149 113 0 c61 0 112 -3 112 -7z m2038 0 c0 -5 -95
-100 -210 -213 l-208 -204 0 120 0 120 94 92 93 92 117 0 c64 0 115 -3 114 -7z
m292 4 c0 -1 -159 -161 -352 -355 l-353 -352 -3 118 -3 117 243 238 243 237
112 0 c62 0 113 -1 113 -3z m290 -4 c0 -10 -92 -103 -102 -103 -4 0 -8 7 -8
17 0 9 -18 33 -40 55 l-41 38 96 0 c52 0 95 -3 95 -7z m290 -1 c0 -4 -57 -64
-127 -134 l-128 -127 -62 17 -63 17 0 40 c0 36 7 46 77 117 l78 78 112 0 c62
0 113 -3 113 -8z m106 -191 l-200 -200 -62 57 -62 57 142 143 141 142 120 0
120 0 -199 -199z m-6156 76 l0 -112 -145 -145 c-91 -91 -145 -138 -145 -127 0
17 -37 93 -63 129 -10 16 9 39 163 193 96 96 178 175 182 175 5 0 8 -51 8
-113z m2883 -439 c-158 -158 -290 -288 -293 -288 -3 0 -19 38 -35 85 l-30 85
55 55 54 55 73 0 c69 0 73 1 72 23 0 12 -6 38 -13 57 l-13 35 206 208 206 207
3 -117 3 -117 -288 -288z m3200 0 l-278 -278 -33 92 -33 93 54 52 55 53 77 0
77 0 -7 33 c-3 17 -11 45 -17 60 -11 28 -7 33 183 223 l194 194 3 -122 3 -122
-278 -278z m-700 360 c-5 -40 -9 -48 -27 -48 -11 0 -41 -9 -65 -20 -24 -11
-44 -20 -46 -20 -1 0 29 31 69 69 39 38 71 69 72 68 1 -1 0 -23 -3 -49z
m-3218 -24 c-3 -19 -11 -34 -18 -34 -7 0 -39 -11 -71 -25 l-60 -24 75 75 c77
78 88 79 74 8z m-5577 -511 l-263 -263 -6 57 c-3 32 -12 77 -19 101 l-14 43
280 280 279 279 3 -117 3 -117 -263 -263z m3412 325 l0 -112 -230 -231 -230
-231 0 39 c0 21 -8 68 -17 103 l-17 65 239 239 c132 132 243 240 248 240 4 0
7 -51 7 -112z m2901 -422 l-269 -269 -31 13 c-42 17 -43 21 -21 66 11 21 20
58 20 84 l0 45 283 283 282 282 3 -117 3 -117 -270 -270z m3206 -4 l-254 -253
-36 17 c-21 10 -37 20 -37 24 0 3 9 24 20 45 14 26 20 55 18 84 l-2 43 269
272 270 271 3 -125 3 -125 -254 -253z m-1032 343 c-8 -26 -15 -52 -15 -56 0
-5 34 -9 75 -11 l75 -3 -225 -225 -225 -225 0 120 0 119 163 166 c89 91 163
165 164 165 1 -1 -4 -23 -12 -50z m-3220 -20 l-12 -50 74 -5 73 -5 -200 -200
-200 -200 0 120 0 120 137 137 c75 76 138 136 139 135 1 -1 -4 -24 -11 -52z
m-5206 -451 l-201 -201 -79 41 -80 40 278 278 278 278 3 -117 3 -117 -202
-202z m9121 381 c-19 -19 -37 -35 -40 -35 -3 0 -11 13 -17 29 -11 30 -11 30
31 34 22 2 45 4 50 5 6 1 -5 -14 -24 -33z m-380 11 c0 -8 -11 -46 -25 -83 -25
-67 -33 -76 -315 -358 l-290 -290 0 120 0 120 252 252 253 253 62 0 c48 0 63
-3 63 -14z m-6640 -331 l-335 -335 -3 117 -3 117 218 218 218 218 120 0 120 0
-335 -335z m830 250 c-47 -47 -87 -85 -90 -85 -5 0 -60 148 -60 163 0 4 53 7
117 7 l118 0 -85 -85z m2590 65 c0 -10 -10 -45 -21 -77 -19 -53 -44 -81 -290
-328 l-269 -271 0 121 0 121 228 227 228 227 62 0 c55 0 62 -2 62 -20z m380
-14 c-38 -37 -45 -36 -55 7 -7 27 -7 27 41 27 l49 0 -35 -34z m-6185 -66 c-49
-49 -92 -86 -96 -82 -8 9 -59 150 -59 163 0 5 52 9 122 9 l123 0 -90 -90z
m3471 -319 l-165 -165 -81 39 -81 39 243 243 243 243 3 -117 3 -117 -165 -165z
m-774 252 c-28 -71 -54 -147 -58 -169 -6 -38 -31 -67 -300 -335 l-294 -294 0
120 0 120 347 347 c191 191 349 345 351 343 2 -2 -19 -62 -46 -132z m3927
-299 l-182 -182 -58 43 c-33 24 -65 45 -71 48 -8 3 93 111 237 256 l250 251 3
-117 3 -117 -182 -182z m3206 -4 c-125 -125 -168 -163 -178 -155 -15 11 -131
89 -134 90 -2 1 104 108 235 238 l237 237 3 -122 3 -122 -166 -166z m-9477
-147 l-132 -132 -27 41 c-15 23 -40 51 -56 64 l-28 23 185 186 185 185 3 -117
3 -117 -133 -133z m8572 326 c-15 -50 -12 -116 6 -150 20 -40 11 -50 -80 -96
-39 -20 -91 -49 -114 -65 -53 -36 -102 -110 -102 -152 0 -28 -101 -132 -915
-946 l-915 -915 0 120 0 120 677 677 678 678 117 0 118 0 0 117 0 118 267 267
c147 147 268 266 270 264 1 -1 -2 -18 -7 -37z m-3219 -16 c-15 -54 -14 -109 5
-144 14 -29 14 -32 -2 -50 -10 -11 -53 -38 -95 -60 -125 -65 -199 -144 -199
-211 0 -14 -32 -55 -95 -119 l-95 -96 0 121 0 121 242 240 c134 132 244 239
246 239 2 -1 -1 -19 -7 -41z m-2168 -335 l-97 -97 -33 49 c-18 27 -43 56 -55
64 -22 16 -22 17 127 166 l150 150 3 -117 3 -117 -98 -98z m3040 -160 l-228
-228 -120 0 -120 0 84 84 84 84 94 4 c85 3 97 5 114 27 25 30 24 62 -2 113
l-21 41 169 169 168 168 3 -117 3 -117 -228 -228z m3200 -10 l-218 -218 -125
0 -125 0 95 95 95 95 90 0 c97 0 106 3 124 38 14 26 9 57 -16 110 l-16 34 154
154 154 154 3 -122 3 -122 -218 -218z m-7116 346 l22 -34 -92 -44 c-116 -55
-170 -95 -207 -153 -49 -77 -38 -143 27 -159 24 -6 22 -10 -58 -90 l-84 -84
-112 0 -113 0 0 -112 0 -113 -682 -682 -683 -683 -97 0 -98 0 0 -98 0 -97
-677 -677 -678 -677 -118 -3 c-64 -2 -117 -1 -117 2 0 7 3734 3740 3740 3740
3 -1 15 -16 27 -36z m-3214 -21 c11 -13 19 -25 16 -27 -2 -2 -39 -20 -83 -40
-43 -19 -101 -52 -130 -72 -42 -30 -31 -16 59 75 61 61 112 106 114 99 2 -7
13 -23 24 -35z m910 -415 l-128 -128 -119 0 -118 0 76 75 c42 41 92 81 110 89
20 8 37 24 41 38 4 12 64 82 134 153 l126 130 3 -115 3 -114 -128 -128z m3180
-30 l-98 -98 -120 0 -120 0 80 81 c44 45 95 88 113 95 18 8 38 27 44 42 6 15
52 69 102 120 l91 92 3 -117 3 -117 -98 -98z m3185 -15 l-83 -83 -120 0 -120
0 200 200 200 200 3 -117 3 -117 -83 -83z m3200 -10 l-72 -73 -126 0 -125 0
195 195 195 195 3 -122 3 -122 -73 -73z m-1263 127 c3 -6 51 -10 108 -10 l102
0 -95 -95 -95 -95 -125 0 -125 0 105 105 c58 58 108 105 112 105 4 0 10 -4 13
-10z m-8148 -190 l27 0 -34 -35 c-19 -19 -37 -35 -40 -35 -3 0 -6 12 -5 28 l0
27 -84 3 -84 3 94 97 94 97 3 -92 3 -93 26 0z m5051 160 l87 0 -85 -85 -85
-85 -120 0 -120 0 94 94 c85 85 96 93 118 85 13 -5 63 -9 111 -9z m3592 16 c0
-2 -42 -44 -92 -94 l-93 -92 -125 0 -125 0 95 95 95 95 122 0 c68 0 123 -2
123 -4z m290 -3 c0 -4 -39 -47 -87 -95 l-88 -88 -125 0 -125 0 95 95 95 95
117 0 c65 0 118 -3 118 -7z m-6799 -98 l-87 -85 -119 0 -120 0 85 85 85 85
121 0 121 0 -86 -85z m299 0 l-85 -85 -121 0 -121 0 86 85 86 85 120 0 120 0
-85 -85z m290 0 l-85 -85 -120 0 -120 0 85 85 85 85 120 0 120 0 -85 -85z
m2620 0 l-85 -85 -120 0 -120 0 85 85 85 85 120 0 120 0 -85 -85z m290 0 l-85
-85 -120 0 -120 0 85 85 85 85 120 0 120 0 -85 -85z m-6705 -5 l-80 -80 -120
0 -120 0 80 80 80 80 120 0 120 0 -80 -80z m290 0 l-80 -80 -120 0 -120 0 80
80 80 80 120 0 120 0 -80 -80z m290 0 l-80 -80 -120 0 -120 0 80 80 80 80 120
0 120 0 -80 -80z m3668 -70 l51 0 -49 -50 -50 -51 -3 46 -3 45 -72 0 -71 0 69
70 70 71 3 -66 3 -65 52 0z m3185 0 l66 0 -64 -65 -65 -66 -3 61 -3 60 -57 0
-56 0 54 55 55 56 3 -51 3 -50 67 0z m3200 0 l76 0 -74 -75 -75 -76 -3 71 -3
70 -52 0 -51 0 49 50 50 51 3 -46 3 -45 77 0z m-9423 -180 c-99 -99 -182 -180
-185 -180 -3 0 -4 53 -2 117 l3 118 62 63 61 62 121 0 120 0 -180 -180z m145
-145 c-179 -179 -327 -325 -330 -325 -3 0 -4 53 -2 117 l3 118 207 208 207
207 120 0 120 0 -325 -325z m145 -145 c-258 -258 -472 -470 -475 -470 -3 0 -4
53 -2 117 l3 118 352 353 352 352 120 0 120 0 -470 -470z m145 -145 c-338
-338 -617 -615 -620 -615 -3 0 -4 53 -2 117 l3 118 497 498 497 497 120 0 120
0 -615 -615z m145 -145 c-418 -418 -762 -760 -765 -760 -3 0 -4 53 -2 117 l3
118 642 643 642 642 120 0 120 0 -760 -760z m2605 565 l-195 -195 -3 117 -3
117 78 78 78 78 120 0 120 0 -195 -195z m145 -145 l-340 -340 -3 117 -3 117
223 223 223 223 120 0 120 0 -340 -340z m145 -145 l-485 -485 -3 117 -3 117
368 368 368 368 120 0 120 0 -485 -485z m145 -145 l-630 -630 -3 117 -3 117
513 513 513 513 120 0 120 0 -630 -630z m145 -145 l-775 -775 -3 117 -3 117
658 658 658 658 120 0 120 0 -775 -775z m2605 565 l-210 -210 -3 117 -3 117
93 93 93 93 120 0 120 0 -210 -210z m145 -145 l-355 -355 -3 117 -3 117 238
238 238 238 120 0 120 0 -355 -355z m640 352 c0 -1 -224 -226 -497 -500 -274
-273 -499 -497 -500 -497 -2 0 -3 53 -3 118 l0 118 383 382 384 382 116 0 c64
0 117 -1 117 -3z m-340 -642 c-355 -355 -648 -645 -652 -645 -5 0 -8 51 -8
112 l0 113 532 532 533 533 120 0 120 0 -645 -645z m2755 425 l-220 -220 -3
122 -3 122 98 98 98 98 125 0 125 0 -220 -220z m145 -145 l-365 -365 -3 122
-3 122 243 243 243 243 125 0 125 0 -365 -365z m145 -145 l-510 -510 -3 122
-3 122 388 388 388 388 125 0 125 0 -510 -510z m145 -145 l-655 -655 -3 122
-3 122 533 533 533 533 125 0 125 0 -655 -655z m-5430 508 l0 -118 -672 -667
-673 -667 -112 -1 c-62 0 -113 3 -113 7 0 8 1551 1558 1563 1561 4 1 7 -51 7
-115z m2518 -800 l-653 -653 -125 0 -125 0 775 775 775 775 3 -122 3 -122
-653 -653z m-6235 -115 l-538 -538 -112 0 c-62 0 -113 3 -113 7 0 5 291 299
648 656 l647 647 3 -117 3 -117 -538 -538z m3713 517 c-3 -11 -238 -253 -523
-537 l-518 -518 -118 0 c-64 0 -117 1 -117 3 0 1 287 289 638 640 l637 637 3
-103 c2 -56 1 -111 -2 -122z m2667 -547 l-508 -508 -117 0 c-65 0 -118 3 -118
7 0 5 280 288 623 631 l622 622 3 -122 3 -122 -508 -508z m-6235 -115 l-393
-393 -112 0 c-62 0 -113 3 -113 7 0 5 226 234 503 511 l502 502 3 -117 3 -117
-393 -393z m3195 -15 l-378 -378 -120 0 -120 0 495 495 495 495 3 -117 3 -117
-378 -378z m3547 461 l0 -121 -362 -359 -363 -358 -117 -1 c-65 0 -118 3 -118
8 -1 8 941 948 953 950 4 1 7 -52 7 -119z m-6593 -596 l-244 -243 -117 0 c-64
0 -116 1 -116 3 0 1 161 164 358 362 l357 360 3 -120 3 -120 -244 -242z m3191
-10 l-233 -233 -120 0 -120 0 350 350 350 350 3 -117 3 -117 -233 -233z m3189
-20 l-213 -213 -122 0 c-67 0 -122 1 -122 3 0 1 150 152 333 335 l332 332 3
-122 3 -123 -214 -212z m-6235 -115 l-99 -98 -119 0 -119 0 215 215 215 215 3
-117 3 -118 -99 -97z m3191 -10 l-88 -88 -120 0 -120 0 205 205 205 205 3
-117 3 -117 -88 -88z m3190 -20 l-67 -68 -126 0 -125 0 190 190 190 190 3
-122 3 -122 -68 -68z m-6235 -68 l46 0 -44 -46 -45 -45 -3 45 -3 46 -72 0 -71
0 69 70 70 71 3 -71 3 -70 47 0z m3188 -2 l55 -3 -56 -55 -55 -54 0 57 0 57
-62 0 -62 0 59 60 60 61 3 -60 3 -60 55 -3z m3192 2 l76 0 -74 -75 -75 -76 -3
76 -3 75 -47 0 -46 0 44 46 45 45 3 -45 3 -46 77 0z m-6233 -190 l-190 -190
-3 117 -3 117 73 73 72 73 121 0 120 0 -190 -190z m145 -145 l-335 -335 -3
117 -3 117 218 218 218 218 120 0 120 0 -335 -335z m145 -145 l-480 -480 -3
117 -3 117 363 363 363 363 120 0 120 0 -480 -480z m145 -145 l-625 -625 -3
117 -3 117 508 508 508 508 120 0 120 0 -625 -625z m145 -145 l-770 -770 -3
117 -3 117 653 653 653 653 120 0 120 0 -770 -770z m2610 570 l-200 -200 -3
117 -3 117 83 83 83 83 120 0 120 0 -200 -200z m145 -145 l-345 -345 -3 117
-3 117 228 228 228 228 120 0 120 0 -345 -345z m145 -145 l-490 -490 -3 117
-3 117 373 373 373 373 120 0 120 0 -490 -490z m145 -147 l-635 -638 -3 120
-3 120 521 518 521 517 117 0 118 0 -636 -637z m160 -138 c-426 -426 -781
-775 -787 -775 -10 0 -13 28 -13 107 l0 108 667 667 668 668 120 0 120 0 -775
-775z m2595 555 l-220 -220 -3 122 -3 122 98 98 98 98 125 0 125 0 -220 -220z
m145 -145 l-365 -365 -3 122 -3 122 243 243 243 243 125 0 125 0 -365 -365z
m145 -145 l-510 -510 -3 122 -3 122 388 388 388 388 125 0 125 0 -510 -510z
m145 -145 l-655 -655 -3 122 -3 122 533 533 533 533 125 0 125 0 -655 -655z
m-5420 522 l0 -112 -652 -652 -653 -652 -118 -3 c-64 -2 -117 -1 -117 2 0 8
1524 1530 1532 1530 5 0 8 -51 8 -113z m2538 -784 l-632 -632 -123 -3 c-68 -2
-123 -1 -123 2 0 3 339 344 753 758 l752 752 3 -122 3 -122 -633 -633z m3197
-3 l-625 -625 -125 -5 c-69 -3 -125 -3 -125 0 0 3 336 341 747 752 l748 746 3
-121 2 -122 -625 -625z m-9417 -97 l-532 -532 -118 -3 c-65 -2 -118 -1 -118 2
0 3 291 296 648 653 l647 647 3 -117 3 -117 -533 -533z m3682 592 l0 -116
-506 -502 -506 -502 -119 -5 c-66 -3 -119 -3 -119 0 -1 7 1233 1235 1243 1238
4 1 7 -50 7 -113z m2683 -637 l-487 -487 -123 -3 c-68 -2 -123 -1 -123 2 0 3
273 278 608 613 l607 607 3 -122 3 -122 -488 -488z m3200 -10 l-478 -478 -125
0 -126 0 601 600 600 600 3 -122 3 -122 -478 -478z m-9420 -90 l-387 -387
-118 -3 c-65 -2 -118 -1 -118 2 0 3 226 231 503 508 l502 502 3 -117 3 -117
-388 -388z m3180 -30 l-358 -358 -120 0 -120 0 475 475 475 475 3 -117 3 -117
-358 -358z m3185 -15 l-342 -342 -123 -3 c-68 -2 -123 -1 -123 2 0 3 208 213
463 468 l462 462 3 -122 3 -122 -343 -343z m3200 -10 l-333 -333 -125 0 -125
0 455 455 455 455 3 -122 3 -122 -333 -333z m-9420 -90 l-242 -242 -118 -3
c-65 -2 -118 -1 -118 2 0 3 161 166 358 363 l357 357 3 -117 3 -117 -243 -243z
m3180 -30 l-213 -213 -120 0 -120 0 330 330 330 330 3 -117 3 -117 -213 -213z
m3185 -15 l-197 -197 -123 -3 c-68 -2 -123 -1 -123 2 0 3 143 147 317 321
l318 315 3 -120 3 -120 -198 -198z m3200 -10 l-188 -188 -125 0 -125 0 310
310 310 310 3 -122 3 -122 -188 -188z m-9414 -94 l-93 -93 -123 -3 c-68 -2
-123 -3 -123 -3 0 0 96 97 213 215 l212 215 3 -119 3 -120 -92 -92z m3174 -26
l-67 -68 -121 0 -120 0 185 185 185 185 3 -117 3 -117 -68 -68z m3190 -20
l-47 -48 -126 0 -126 0 171 173 170 172 3 -124 3 -125 -48 -48z m3195 -5 l-42
-43 -125 0 -126 0 165 165 165 165 3 -122 3 -122 -43 -43z m-9438 -73 c17 0
30 -4 30 -8 0 -4 -20 -27 -44 -51 l-45 -44 -3 64 -3 64 -50 3 -51 3 66 67 65
67 3 -82 3 -83 29 0z m3181 -2 l60 -3 -66 -65 -65 -64 0 82 0 82 -37 0 -37 0
39 41 40 40 3 -55 3 -55 60 -3z m3109 53 c0 -25 -3 -28 -26 -23 l-25 5 22 23
c28 30 29 30 29 -5z m3276 -53 l85 -3 -91 -90 -90 -90 0 108 c0 93 -2 107 -17
107 -14 0 -14 2 3 21 l19 21 3 -35 3 -36 85 -3z m-3126 -6 c0 -8 -142 -152
-150 -152 -3 0 -5 37 -5 83 l0 82 78 -3 c42 -2 77 -6 77 -10z m-6120 0 c0 -4
-85 -93 -190 -197 l-190 -190 0 120 0 120 77 77 78 78 112 0 c62 0 113 -3 113
-8z m-35 -332 l-340 -340 -3 117 -3 117 223 223 223 223 120 0 120 0 -340
-340z m145 -145 l-485 -485 -3 117 -3 117 368 368 368 368 120 0 120 0 -485
-485z m145 -145 l-630 -630 -3 117 -3 117 513 513 513 513 120 0 120 0 -630
-630z m145 -145 l-775 -775 -3 117 -3 117 658 658 658 658 120 0 120 0 -775
-775z m2605 565 l-210 -210 -3 117 -3 117 93 93 93 93 120 0 120 0 -210 -210z
m145 -145 l-355 -355 -3 117 -3 117 238 238 238 238 120 0 120 0 -355 -355z
m145 -145 l-500 -500 -3 117 -3 117 383 383 383 383 120 0 120 0 -500 -500z
m145 -145 l-645 -645 -3 117 -3 117 528 528 528 528 120 0 120 0 -645 -645z
m165 -135 c-440 -440 -788 -780 -797 -780 -11 0 -18 -7 -18 -18 0 -9 -417
-434 -959 -976 l-959 -959 -62 32 c-35 17 -74 31 -87 31 -12 0 -23 3 -23 8 0
4 64 71 143 149 l142 142 108 3 109 3 -1 105 0 105 687 688 687 687 107 0 108
0 0 108 0 107 673 673 672 672 125 0 125 0 -780 -780z m2595 555 c-124 -124
-227 -225 -230 -225 -3 0 -4 55 -2 122 l3 123 102 103 102 102 125 0 125 0
-225 -225z m145 -145 c-203 -203 -372 -370 -375 -370 -3 0 -4 55 -2 122 l3
123 247 248 247 247 125 0 125 0 -370 -370z m145 -145 c-283 -283 -517 -515
-520 -515 -3 0 -4 55 -2 122 l3 123 392 393 392 392 125 0 125 0 -515 -515z
m145 -145 l-660 -660 -3 122 -3 122 538 538 538 538 125 0 125 0 -660 -660z
m915 643 c0 -10 -334 -352 -762 -780 -641 -641 -767 -763 -790 -763 -24 0 -28
-4 -28 -28 0 -23 -149 -176 -943 -970 l-943 -943 -55 25 c-29 14 -63 26 -74
26 -11 0 -27 5 -35 10 -12 8 13 37 125 150 l140 140 97 0 98 0 0 97 0 98 697
697 698 698 97 0 98 0 0 97 0 98 682 682 683 683 107 0 c96 0 108 -2 108 -17z
m1840 -218 l-235 -235 -3 122 -3 122 113 113 113 113 125 0 125 0 -235 -235z
m145 -145 l-380 -380 -3 122 -3 122 258 258 258 258 125 0 125 0 -380 -380z
m145 -145 l-525 -525 -3 122 -3 122 403 403 403 403 125 0 125 0 -525 -525z
m808 518 c-1 -5 -302 -307 -670 -673 l-668 -665 0 125 0 125 548 548 547 547
123 0 c67 0 121 -3 120 -7z m-9285 -140 l-2 -117 -648 -648 -648 -648 -120 0
-120 0 765 765 c421 421 767 765 770 765 3 0 4 -53 3 -117z m2545 -780 l-633
-633 -125 0 -125 0 755 755 755 755 3 -122 3 -122 -633 -633z m3185 -15 l-618
-618 -125 0 -125 0 740 740 740 740 3 -122 3 -122 -618 -618z m-5730 505 l-2
-117 -503 -503 -503 -503 -120 0 -120 0 620 620 c341 341 622 620 625 620 3 0
4 -53 3 -117z m2690 -635 l-488 -488 -125 0 -125 0 610 610 610 610 3 -122 3
-122 -488 -488z m3185 -15 l-473 -473 -125 0 -125 0 595 595 595 595 3 -122 3
-122 -473 -473z m-5875 360 l-2 -118 -358 -357 -358 -358 -120 0 -120 1 475
473 c261 261 477 474 480 475 3 1 4 -52 3 -116z m2835 -490 l-343 -343 -125 0
-125 0 465 465 465 465 3 -122 3 -122 -343 -343z m3190 -20 l-323 -323 -128 0
-129 0 448 448 449 447 3 -125 3 -124 -323 -323z m-6025 215 l-2 -122 -208
-208 -208 -208 -120 0 -120 0 330 330 c181 182 330 330 330 330 0 0 -1 -55 -2
-122z m2980 -340 l-198 -198 -125 0 -125 0 320 320 320 320 3 -122 3 -122
-198 -198z m3190 -20 l-178 -178 -125 0 -125 0 300 300 300 300 3 -122 3 -122
-178 -178z m-6170 70 l-2 -122 -63 -63 -62 -63 -121 0 -120 0 185 185 c102
102 185 185 185 185 0 0 -1 -55 -2 -122z m3177 -25 l0 -117 -52 -53 -52 -53
-126 0 -125 0 170 170 c93 94 173 170 177 170 5 0 8 -53 8 -117z m3138 -190
l-32 -33 -125 0 -126 0 155 155 155 155 3 -122 3 -121 -33 -34z m-6313 27 c-3
-11 -3 -29 0 -40 6 -18 15 -20 83 -20 l76 0 -74 -75 c-41 -41 -78 -75 -82 -75
-3 0 -6 33 -5 73 l1 72 -38 3 -39 3 39 40 c44 45 48 47 39 19z m3273 -60 l97
0 -95 -95 -95 -95 -3 95 -3 95 -26 0 -26 0 24 26 24 26 3 -26 c3 -26 3 -26
100 -26z m3185 -2 l107 -3 -110 -110 -110 -110 0 113 c0 72 -4 112 -11 112 -5
0 -7 5 -3 11 4 8 8 8 13 0 4 -6 52 -11 114 -13z m-6228 -218 c-121 -121 -223
-220 -227 -220 -3 0 -7 51 -7 112 l0 112 107 108 106 108 120 0 121 0 -220
-220z m145 -145 c-201 -201 -368 -365 -372 -365 -3 0 -7 51 -7 113 l0 112 252
253 251 252 121 0 120 0 -365 -365z m145 -145 c-280 -280 -513 -510 -517 -510
-3 0 -7 51 -7 113 l0 112 397 398 397 397 120 0 120 0 -510 -510z m795 507 c0
-1 -297 -299 -659 -661 l-660 -660 0 120 0 119 542 543 542 542 117 0 c65 0
118 -1 118 -3z m2105 -237 l-240 -240 -3 122 -3 122 118 118 118 118 125 0
125 0 -240 -240z m145 -145 l-385 -385 -3 122 -3 122 263 263 263 263 125 0
125 0 -385 -385z m145 -145 l-530 -530 -3 122 -3 122 408 408 408 408 125 0
125 0 -530 -530z m145 -145 l-675 -675 -3 122 -3 122 553 553 553 553 125 0
125 0 -675 -675z m2750 420 l-255 -255 -3 122 -3 122 133 133 133 133 125 0
125 0 -255 -255z m145 -145 l-400 -400 -3 122 -3 122 278 278 278 278 125 0
125 0 -400 -400z m145 -145 l-545 -545 -3 122 -3 122 423 423 423 423 125 0
125 0 -545 -545z m145 -145 l-690 -690 -3 122 -3 122 568 568 568 568 125 0
125 0 -690 -690z m905 653 c0 -37 -24 -62 -752 -790 -425 -425 -761 -753 -770
-753 -10 0 -18 -7 -18 -17 0 -10 -88 -106 -196 -214 l-195 -196 -32 29 c-17
16 -48 38 -69 49 -21 11 -38 23 -38 27 0 4 69 75 152 159 l153 153 82 0 83 0
0 82 0 83 712 712 713 713 87 0 88 0 0 -37z m-9500 -105 l0 -113 -662 -662
-663 -663 -120 0 -120 0 775 775 c426 426 778 775 782 775 5 0 8 -51 8 -112z
m2513 -810 l-628 -628 -125 0 -125 0 750 750 750 750 3 -122 3 -122 -628 -628z
m3807 725 l0 -118 -617 -617 -618 -618 -125 0 -125 0 735 735 c404 404 738
735 742 735 5 0 8 -53 8 -117z m2573 -749 l-608 -603 -125 0 -125 0 730 727
730 727 3 -124 3 -125 -608 -602z m-8893 544 l0 -113 -517 -517 -518 -518
-120 0 -120 0 630 630 c346 347 633 630 637 630 5 0 8 -51 8 -112z m2658 -665
l-483 -483 -125 0 -125 0 605 605 605 605 3 -122 3 -122 -483 -483z m3662 580
l0 -118 -472 -472 -473 -473 -125 0 -125 0 590 590 c324 325 593 590 597 590
5 0 8 -53 8 -117z m2723 -605 l-458 -458 -125 0 -125 0 580 583 580 582 3
-125 3 -124 -458 -458z m-9043 399 l0 -112 -373 -373 -372 -372 -120 0 -120 0
485 485 c267 267 488 485 492 485 5 0 8 -51 8 -113z m2803 -519 l-338 -338
-125 0 -125 0 460 460 460 460 3 -122 3 -122 -338 -338z m3517 435 l0 -118
-327 -327 -328 -328 -125 0 -125 0 445 445 c245 245 448 445 452 445 5 0 8
-53 8 -117z m2868 -460 l-313 -313 -125 0 -125 0 435 435 435 435 3 -122 3
-122 -313 -313z m-9188 255 l0 -113 -227 -227 -228 -228 -120 0 -120 1 340
338 c187 185 343 338 348 339 4 1 7 -49 7 -110z m2948 -375 l-193 -193 -125 0
-125 0 315 315 315 315 3 -122 3 -122 -193 -193z m3372 285 l0 -123 -181 -177
-182 -178 -123 0 -123 0 297 298 c163 164 300 299 305 300 4 1 7 -53 7 -120z
m3013 -310 l-168 -168 -125 0 -125 0 290 290 290 290 3 -122 3 -122 -168 -168z
m-9333 105 l0 -118 -77 -77 -78 -78 -119 0 -120 0 189 193 c105 107 193 195
198 195 4 1 7 -51 7 -115z m3093 -225 l-47 -48 -126 0 -125 0 170 170 170 170
3 -122 3 -122 -48 -48z m3227 142 c0 -119 0 -119 -31 -155 l-31 -35 -126 0
-127 0 155 155 c85 85 156 155 157 155 2 0 3 -54 3 -120z m3159 -167 c-21 -22
-29 -23 -148 -23 l-126 0 145 145 145 145 3 -121 c2 -114 1 -124 -19 -146z
m-9479 27 l0 -50 -52 0 -52 0 49 50 c27 28 51 50 52 50 2 0 3 -22 3 -50z
m3140 -25 c0 -20 -5 -25 -27 -25 l-26 0 23 25 c13 14 25 25 27 25 2 0 3 -11 3
-25z m3180 -15 c0 -5 -5 -10 -11 -10 -5 0 -7 5 -4 10 3 6 8 10 11 10 2 0 4 -4
4 -10z m-6253 -78 l-57 -57 0 57 0 57 53 3 c28 2 54 2 57 0 2 -1 -22 -28 -53
-60z m145 -145 l-202 -202 0 120 0 120 83 82 82 82 115 3 c63 2 117 2 120 0 2
-1 -87 -94 -198 -205z m145 -145 l-347 -347 0 120 0 120 228 227 227 227 115
3 c63 2 117 2 120 0 2 -2 -152 -159 -343 -350z m607 317 c-25 -26 -33 -29 -66
-24 -102 18 -188 -72 -188 -198 0 -27 -5 -39 -17 -43 -144 -47 -265 -157 -295
-267 -10 -40 -36 -70 -200 -234 l-188 -188 0 120 0 120 373 372 372 372 115 3
c63 2 117 2 119 0 3 -1 -9 -16 -25 -33z m196 -94 l-124 -125 -17 61 c-9 33
-26 70 -38 83 l-21 22 43 42 42 41 115 3 c63 2 117 2 120 0 2 -1 -52 -59 -120
-127z m2169 123 c-3 -2 -35 -32 -72 -68 l-67 -64 0 66 0 67 68 3 c62 3 82 2
71 -4z m78 -216 l-217 -217 0 125 0 125 93 92 92 92 120 3 c66 2 122 2 125 0
2 -1 -94 -100 -213 -220z m145 -145 l-362 -362 0 125 0 125 238 237 237 237
120 3 c66 2 122 2 125 0 2 -2 -159 -166 -358 -365z m623 333 c-20 -21 -34 -28
-50 -24 -35 9 -99 -13 -126 -43 -29 -31 -45 -69 -55 -128 -9 -53 -25 -70 -102
-106 -85 -41 -174 -130 -199 -198 -15 -44 -48 -81 -235 -268 l-218 -218 0 125
0 125 383 382 382 383 120 2 c66 2 122 2 124 0 3 -1 -8 -16 -24 -32z m205 -85
l-115 -115 -16 50 c-16 50 -31 75 -58 98 -13 10 -10 17 19 47 l33 34 121 3
c67 2 123 2 126 0 2 -1 -47 -54 -110 -117z m2072 32 l-82 -82 0 82 0 82 78 3
c42 2 79 2 82 0 2 -1 -33 -40 -78 -85z m145 -145 l-227 -227 0 125 0 125 103
102 102 102 120 3 c66 2 122 2 125 0 2 -1 -98 -105 -223 -230z m145 -145
l-372 -372 0 125 0 125 248 247 247 247 120 3 c66 2 122 2 125 0 2 -2 -163
-170 -368 -375z m603 313 l-59 -59 -22 24 c-31 34 -91 50 -139 36 l-38 -10 33
34 33 34 121 3 c67 2 123 2 125 0 3 -1 -22 -29 -54 -62z m200 -90 c-102 -102
-157 -150 -172 -150 -41 0 -53 11 -53 49 0 20 -4 52 -10 71 -10 34 -9 36 62
107 l72 72 120 3 c67 2 123 2 126 0 2 -1 -63 -70 -145 -152z m2110 70 c-44
-44 -83 -80 -87 -80 -5 0 -8 36 -8 80 l0 79 83 3 c45 2 84 2 86 0 3 -1 -31
-38 -74 -82z m137 -153 l-232 -232 0 125 0 125 108 107 107 107 120 3 c66 2
122 2 125 0 2 -1 -100 -107 -228 -235z m817 231 c-3 -2 -34 -32 -71 -67 l-67
-64 -26 31 c-27 32 -94 58 -121 48 -21 -8 -17 8 9 32 20 19 36 22 147 24 116
3 140 2 129 -4z m290 0 c-3 -2 -75 -72 -160 -156 l-156 -154 -40 11 c-39 11
-39 12 -50 73 l-11 63 81 82 81 82 125 3 c117 3 141 2 130 -4z m-959 -373
c-206 -206 -376 -375 -377 -375 -2 0 -3 55 -3 122 l0 122 252 253 252 253 126
0 125 0 -375 -375z m-8467 -27 l-127 -127 -27 47 c-15 26 -39 58 -53 72 l-27
24 178 178 178 178 3 -122 3 -122 -128 -128z m3205 5 c-56 -57 -105 -103 -108
-103 -3 0 -18 20 -33 45 -16 25 -41 54 -55 65 l-26 21 160 160 159 159 3 -122
3 -122 -103 -103z m3130 -70 l-153 -153 -12 57 c-7 31 -23 72 -35 90 l-21 35
184 184 184 184 3 -122 3 -122 -153 -153z m-787 308 c-6 -11 -14 -47 -17 -80
l-7 -59 -44 -13 c-93 -26 -201 -116 -247 -207 -10 -18 -20 -54 -23 -80 l-5
-47 36 1 c20 1 36 -1 36 -5 0 -3 -85 -92 -190 -196 l-190 -190 0 125 0 125
327 327 c180 180 329 326 331 323 2 -2 -1 -12 -7 -24z m3162 -53 c-7 -71 -13
-88 -27 -88 -7 0 -45 -16 -83 -35 -115 -57 -198 -160 -217 -267 l-7 -38 38 -2
c21 0 46 -1 56 0 9 1 17 1 17 -1 0 -1 -90 -92 -200 -202 l-200 -200 0 125 0
124 312 313 c172 172 313 313 314 313 1 0 0 -19 -3 -42z m-8790 -560 l-207
-207 -31 92 -31 92 75 78 c72 73 78 77 119 77 l44 0 -5 38 c-5 36 -2 40 117
160 l121 122 3 -122 3 -122 -208 -208z m3205 5 c-100 -100 -184 -180 -186
-178 -2 2 -17 43 -34 91 l-29 88 63 63 62 63 60 0 59 0 -6 52 -7 53 98 98 97
97 3 -122 3 -122 -183 -183z m3362 279 l0 -117 -260 -260 c-143 -143 -260
-257 -260 -254 0 4 7 23 15 42 18 43 19 102 3 164 l-11 46 249 247 c137 135
252 247 257 248 4 1 7 -51 7 -116z m-6522 -529 l-163 -162 -66 32 -65 32 22
49 c17 37 75 102 226 253 l203 203 3 -122 3 -122 -163 -163z m2195 372 c7 2
56 1 110 -3 l97 -7 -325 -325 -325 -325 0 125 0 125 212 212 c117 117 214 209
216 204 2 -6 9 -8 15 -6z m1001 -376 l-147 -148 -51 26 c-28 14 -52 26 -54 28
-1 1 5 18 13 38 8 20 15 47 15 59 0 16 53 76 183 206 l182 182 3 -122 3 -122
-147 -147z m-4007 367 c1 -1 -137 -141 -307 -311 l-310 -310 0 120 0 121 198
196 197 196 110 -5 c61 -3 111 -6 112 -7z m548 -46 l-60 -61 -16 38 c-37 88
-41 83 53 83 l82 0 -59 -60z m3215 15 c-24 -25 -47 -45 -51 -45 -4 0 -14 20
-22 45 l-16 45 67 0 66 0 -44 -45z m3240 42 c0 -1 -44 -46 -98 -100 l-99 -98
-32 90 c-18 50 -30 95 -26 101 5 8 255 16 255 7z m-6920 -17 c0 -5 -18 -55
-41 -111 -22 -56 -47 -127 -55 -158 -14 -54 -22 -64 -309 -351 l-295 -295 0
125 0 125 337 337 c186 186 344 338 350 338 7 0 13 -4 13 -10z m3220 -40 c-11
-27 -29 -74 -41 -102 -12 -29 -27 -73 -35 -98 -12 -39 -56 -87 -339 -370
l-325 -325 0 125 0 125 347 347 c314 314 351 348 380 348 l33 0 -20 -50z
m3069 22 c-5 -15 -148 -166 -319 -337 l-310 -310 0 125 0 125 212 212 213 213
107 0 107 0 -10 -28z m3181 19 c0 -5 -9 -29 -19 -53 -14 -31 -99 -122 -310
-333 l-291 -290 0 125 0 124 217 218 217 218 93 0 c51 0 93 -4 93 -9z m-2381
-407 l-161 -161 -71 43 c-38 24 -74 45 -79 46 -5 2 98 110 229 240 l238 238 3
-122 3 -122 -162 -162z m-870 211 c-29 -84 -41 -155 -30 -191 8 -30 6 -35 -43
-82 -28 -27 -71 -62 -96 -77 -63 -38 -99 -73 -122 -120 -18 -37 -713 -745
-730 -745 -5 0 -8 17 -8 37 0 29 7 42 32 63 42 36 45 91 6 125 l-26 22 107
107 106 106 123 0 122 0 0 122 0 123 287 287 c158 158 288 286 290 284 1 -1
-6 -29 -18 -61z m3161 -44 c-22 -69 -25 -135 -10 -177 14 -36 0 -50 -99 -103
-43 -24 -95 -59 -115 -79 -37 -35 -76 -99 -76 -124 0 -7 -147 -160 -326 -339
l-327 -327 -62 43 c-35 23 -69 45 -76 48 -9 3 47 66 156 176 l170 171 117 0
118 0 0 115 0 115 273 272 c149 150 273 273 274 273 1 -1 -7 -29 -17 -64z
m-8575 -331 l-86 -87 -63 61 -63 61 146 148 146 147 3 -122 3 -122 -86 -86z
m3265 182 l0 -118 -67 -66 -68 -66 -64 59 -65 60 124 124 c69 69 128 125 132
125 5 0 8 -53 8 -118z m3073 -254 l-107 -108 -12 41 c-7 23 -27 59 -45 81
l-32 40 149 149 149 149 3 -122 3 -122 -108 -108z m-4015 271 c1 -17 9 -44 17
-59 l15 -29 -93 -45 c-109 -54 -169 -102 -199 -160 -26 -52 -29 -117 -6 -143
17 -18 15 -21 -45 -81 l-63 -62 -124 0 -125 0 305 305 c168 168 307 305 310
305 3 0 7 -14 8 -31z m-3208 -85 c0 -2 -39 -25 -88 -49 -106 -53 -172 -109
-201 -170 -31 -67 -25 -119 18 -152 14 -11 9 -20 -41 -68 l-58 -56 -110 3
-110 3 0 -115 0 -115 -210 -210 c-206 -206 -210 -209 -210 -175 0 27 14 53 60
114 l60 79 0 71 0 71 428 428 427 427 17 -40 c10 -22 18 -43 18 -46z m6295 -4
c-3 -5 -11 -10 -16 -10 -6 0 -7 5 -4 10 3 6 11 10 16 10 6 0 7 -4 4 -10z
m-5412 -402 l-88 -88 -117 0 c-65 0 -118 3 -118 7 0 4 21 29 47 55 44 45 50
48 100 48 40 0 58 5 80 24 24 21 28 31 28 80 l0 55 75 76 75 76 3 -123 3 -122
-88 -88z m3267 182 l0 -120 -76 -75 -76 -75 -119 0 c-65 0 -119 3 -119 6 0 3
21 28 47 55 46 49 47 49 110 49 93 0 132 26 133 87 0 17 -4 43 -9 57 -9 21 -4
31 42 79 29 30 55 55 60 56 4 0 7 -53 7 -119z m3116 -207 l-64 -63 -123 0
-124 0 185 185 185 185 3 -122 3 -123 -65 -62z m-1281 117 c-4 -6 7 -24 24
-40 25 -26 37 -30 82 -30 l53 0 -54 -55 -54 -55 -118 0 c-65 0 -118 3 -118 7
0 10 173 183 183 183 4 0 5 -5 2 -10z m3199 -45 c22 -22 34 -25 98 -25 l73 0
-57 -55 -56 -55 -121 0 c-67 0 -121 2 -121 4 0 3 153 156 157 156 1 0 13 -11
27 -25z m-8214 -75 l0 -59 55 -3 56 -3 -56 -55 -55 -54 0 57 0 57 -60 0 c-33
0 -60 3 -60 7 0 10 102 113 112 113 4 0 8 -27 8 -60z m-990 -5 l-54 -55 -125
0 -125 0 54 55 54 55 125 0 125 0 -54 -55z m290 0 l-54 -55 -125 0 -125 0 54
55 54 55 125 0 125 0 -54 -55z m290 0 l-54 -55 -118 0 c-65 0 -118 3 -118 7 0
4 21 29 47 55 l47 48 125 0 125 0 -54 -55z m2620 0 l-54 -55 -118 0 c-65 0
-118 3 -118 7 0 4 21 29 47 55 l47 48 125 0 125 0 -54 -55z m290 0 l-54 -55
-118 0 c-65 0 -118 3 -118 7 0 4 21 29 47 55 l47 48 125 0 125 0 -54 -55z
m290 0 l-54 -55 -118 0 c-65 0 -118 3 -118 7 0 4 21 29 47 55 l47 48 125 0
125 0 -54 -55z m2620 0 l-54 -55 -118 0 c-65 0 -118 3 -118 7 0 4 21 29 47 55
l47 48 125 0 125 0 -54 -55z m298 0 l-56 -55 -121 0 c-67 0 -121 2 -121 4 0 3
24 27 53 55 l52 51 125 0 125 0 -57 -55z m290 0 l-56 -55 -123 0 -123 0 54 55
54 55 126 0 125 0 -57 -55z m2620 0 l-56 -55 -123 0 -123 0 54 55 54 55 126 0
125 0 -57 -55z m292 0 l-54 -55 -125 0 -125 0 54 55 54 55 125 0 125 0 -54
-55z m290 0 l-54 -55 -125 0 -125 0 54 55 54 55 125 0 125 0 -54 -55z m-5949
-53 c38 2 69 1 69 -2 0 -3 -31 -37 -70 -75 l-70 -69 0 72 0 72 -50 0 c-27 0
-50 2 -50 4 0 3 21 25 48 50 l47 45 3 -50 3 -51 70 4z m3190 0 c43 2 79 1 79
-2 0 -3 -36 -41 -80 -85 l-80 -80 0 83 0 82 -42 0 -42 0 39 41 40 40 3 -41 3
-41 80 3z m-9021 -77 c-69 -69 -92 -87 -89 -67 5 29 -4 32 -93 32 l-92 0 54
55 54 54 115 3 c64 2 118 2 120 0 3 -1 -28 -36 -69 -77z m315 25 l-49 -50 -76
0 c-41 0 -81 -4 -88 -9 -10 -6 -13 -29 -10 -87 l3 -79 -87 -3 -88 -3 0 38 c0
35 8 47 103 140 l102 102 115 3 c63 2 117 2 119 0 3 -1 -17 -25 -44 -52z m285
-5 c-38 -39 -62 -55 -80 -55 -33 0 -50 -17 -50 -49 0 -27 -83 -121 -107 -121
-10 0 -13 22 -13 85 0 69 -3 85 -15 85 -24 0 -18 13 33 63 l47 46 115 3 c63 2
117 2 119 0 3 -1 -20 -27 -49 -57z m245 -55 c-60 -61 -113 -110 -117 -110 -4
0 -8 24 -10 53 l-3 52 -58 5 -58 5 53 52 53 52 120 3 c66 2 122 2 124 0 3 -1
-44 -52 -104 -112z m1940 -91 l-205 -205 0 126 0 125 78 77 77 77 125 3 c69 2
126 3 127 2 1 0 -90 -92 -202 -205z m147 -152 l-352 -351 0 124 0 125 228 227
227 227 120 3 c66 2 122 2 125 0 2 -2 -154 -161 -348 -355z m571 281 l-71 -71
-46 26 -45 25 -84 -58 c-107 -75 -227 -202 -267 -283 -19 -38 -33 -88 -38
-130 l-9 -69 -181 -181 -182 -182 0 125 0 125 373 372 372 373 120 2 c66 2
122 2 125 0 2 -1 -28 -35 -67 -74z m231 -59 l-130 -130 -72 53 -71 53 76 77
77 77 120 3 c67 2 123 2 126 0 2 -1 -55 -61 -126 -133z m208 -82 c-187 -186
-214 -210 -223 -194 -6 10 -30 42 -54 71 l-43 53 142 141 141 141 120 3 c66 2
122 2 125 0 2 -1 -91 -98 -208 -215z m2035 -5 l-217 -217 0 125 0 125 93 92
92 92 120 3 c66 2 122 2 125 0 2 -1 -94 -100 -213 -220z m403 113 c-58 -58
-110 -105 -117 -105 -6 0 -22 -14 -35 -31 -49 -66 -274 -291 -305 -304 -19 -8
-40 -28 -52 -52 -10 -21 -40 -58 -65 -83 l-46 -44 0 124 0 125 238 237 237
237 120 3 c66 2 122 2 124 0 3 -1 -42 -50 -99 -107z m190 -100 c-113 -113
-208 -205 -211 -205 -3 0 -10 10 -16 22 -8 18 -6 26 9 38 10 8 21 29 24 47 5
27 1 37 -26 64 l-32 32 103 103 103 103 121 3 c66 2 122 2 125 0 2 -1 -88 -95
-200 -207z m394 104 c-54 -55 -115 -107 -134 -117 -20 -10 -42 -32 -52 -52
-10 -19 -84 -101 -166 -183 l-148 -147 -42 74 c-23 40 -42 78 -42 82 0 5 98
107 218 226 l217 217 120 3 c66 2 122 2 124 0 3 -1 -40 -48 -95 -103z m2203
-127 l-227 -227 0 125 0 125 103 102 102 102 120 3 c66 2 122 2 125 0 2 -1
-98 -105 -223 -230z m469 179 c-27 -27 -54 -47 -62 -44 -7 3 -35 -25 -67 -69
-82 -111 -75 -109 -157 -47 l-70 54 77 77 77 77 120 3 c67 2 123 2 125 0 3 -1
-17 -24 -43 -51z m467 -113 l-166 -166 -52 18 c-28 10 -70 21 -93 25 -23 4
-42 10 -42 14 0 3 60 66 133 138 l132 132 125 3 c69 2 126 3 127 2 2 0 -72
-75 -164 -166z m-263 27 c-145 -145 -162 -155 -212 -115 -14 11 -30 38 -36 61
l-11 42 71 74 71 73 126 0 126 0 -135 -135z m-5868 -338 l-200 -200 0 69 c-1
38 -8 87 -16 109 l-14 40 211 213 212 212 3 -122 3 -122 -199 -199z m3160 -40
l-219 -219 -11 114 -12 113 228 228 227 227 3 -122 3 -122 -219 -219z m3410
325 l-3 -128 -145 -145 c-128 -127 -146 -142 -155 -126 -6 10 -30 42 -54 71
l-43 53 196 200 c109 110 199 201 202 201 3 1 4 -56 2 -126z m-1267 -82 c14
-40 25 -83 25 -94 0 -14 -62 -83 -180 -201 l-180 -180 0 125 0 125 152 152
c84 84 153 151 155 149 2 -1 14 -36 28 -76z m-8797 13 c-2 -10 -14 -20 -28
-22 -25 -3 -25 -3 -6 18 23 26 39 27 34 4z m332 -468 l-210 -210 0 125 0 125
208 208 207 207 3 -122 3 -122 -211 -211z m3098 -102 c-144 -144 -264 -260
-266 -258 -3 2 9 26 27 53 37 58 65 136 86 240 l16 77 197 198 197 197 3 -122
3 -122 -263 -263z m2352 457 c6 0 10 -27 10 -68 l0 -67 -103 -103 c-56 -56
-107 -102 -113 -102 -21 0 -38 30 -26 42 23 23 14 75 -17 100 l-29 23 110 111
110 111 23 -23 c13 -13 29 -24 35 -24z m466 -171 c-57 -119 -95 -185 -120
-208 -20 -19 -37 -33 -39 -30 -2 2 -23 37 -46 78 l-42 75 148 148 c142 142
148 147 166 130 17 -17 14 -25 -67 -193z m602 -69 c-28 -35 -37 -37 -31 -7 7
38 -40 87 -84 87 -51 0 -98 -49 -89 -93 4 -17 12 -38 20 -45 10 -11 -6 -32
-98 -120 l-110 -107 -7 30 c-21 92 -27 81 204 313 l212 212 3 -120 c2 -113 1
-123 -20 -150z m3214 132 l-3 -128 -99 -99 c-55 -55 -101 -97 -102 -94 -2 2
-19 42 -37 88 l-33 83 138 139 c76 77 139 139 139 139 0 0 -1 -58 -3 -128z
m-1260 -20 c-16 -31 -33 -82 -37 -112 -10 -75 -29 -118 -74 -165 -21 -22 -56
-65 -79 -95 -22 -30 -65 -80 -96 -110 l-56 -54 0 124 0 125 182 182 c101 101
184 179 186 173 2 -6 -10 -36 -26 -68z m-8424 -469 c-90 -90 -165 -163 -168
-163 -12 0 -90 120 -90 137 0 10 92 110 208 226 l207 207 3 -122 3 -122 -163
-163z m5404 283 c-3 -115 -5 -125 -27 -146 l-24 -23 -66 58 -66 58 88 89 c48
48 90 88 93 88 3 0 4 -56 2 -124z m-2324 -403 c-211 -211 -236 -233 -263 -231
l-30 3 -3 90 -3 89 263 263 263 263 3 -122 3 -122 -233 -233z m3302 102 c-60
-62 -110 -108 -110 -104 0 4 16 77 36 161 l37 153 71 73 71 74 3 -123 3 -122
-111 -112z m3302 214 l-3 -126 -73 -72 -72 -72 -22 103 -22 102 97 98 c53 53
97 96 97 95 1 -1 0 -59 -2 -128z m-4646 86 c15 -14 32 -25 39 -25 7 0 18 -21
24 -47 l12 -47 -105 -105 -106 -106 0 125 0 124 52 53 c29 29 53 53 55 53 1 0
14 -11 29 -25z m-3115 -399 l-201 -201 0 125 0 125 182 182 183 183 18 -106
19 -107 -201 -201z m4452 379 c-3 -9 -8 -14 -10 -11 -3 3 -2 9 2 15 9 16 15
13 8 -4z m-1222 -238 l23 -88 -137 -137 -137 -137 0 125 0 125 107 107 c59 59
111 104 114 100 4 -4 18 -47 30 -95z m-5108 -269 c-101 -101 -122 -118 -149
-118 l-32 0 -4 88 -5 87 151 153 151 152 3 -122 3 -122 -118 -118z m5354 325
c-3 -3 -11 -2 -17 2 -8 5 -7 11 2 22 12 15 13 14 16 -1 2 -10 1 -20 -1 -23z
m-2207 -378 l-120 -120 -95 30 -95 30 213 213 212 212 3 -122 3 -122 -121
-121z m-1132 27 c-90 -90 -187 -182 -216 -204 -29 -21 -57 -49 -61 -61 -5 -12
-21 -33 -35 -46 l-26 -24 0 124 0 124 207 207 207 207 43 -81 44 -82 -163
-164z m4315 -54 c-65 -65 -122 -118 -127 -118 -5 0 -6 52 -2 123 l7 122 117
118 117 117 3 -122 3 -122 -118 -118z m3309 230 l-3 -123 -57 -57 c-31 -32
-59 -58 -63 -58 -3 0 -9 50 -13 112 l-7 112 68 68 c37 37 70 68 73 68 3 0 4
-55 2 -122z m-1512 48 c-13 -35 -13 -92 0 -116 6 -11 22 -25 35 -33 l25 -13
-75 -74 -75 -74 0 124 0 124 47 48 c26 26 48 46 50 44 2 -2 -1 -15 -7 -30z
m-5941 -242 l1 -52 -64 -11 c-54 -10 -103 -24 -191 -56 -11 -4 39 52 110 124
l130 131 7 -42 c3 -24 7 -66 7 -94z m1081 -56 l-1 -123 -35 -38 c-35 -37 -36
-38 -50 -19 -7 11 -37 34 -66 53 -29 18 -55 34 -57 36 -4 3 199 213 206 213 2
0 3 -55 3 -122z m-4460 2 c0 -14 -7 -20 -22 -20 -20 0 -21 1 -3 20 10 11 20
20 22 20 1 0 3 -9 3 -20z"/>
</g>
</svg>
